# xmcd CD database file
#
# Track frame offsets:
#	150
#	13102
#	27255
#	45569
#	59574
#	73764
#	89143
#	104161
#	118162
#	133391
#	150797
#	161954
#	175079
#	195769
#	207888
#	222634
#	236643
#	248682
#	261919
#	277474
#	291422
#
# Disc length: 4058 seconds
#
# Revision: 0
# Processed by: cddbd v1.5.2PL0 Copyright (c) Steve Scherf et al.
# Submitted via: CDex 1.51
#
DISCID=510fd815
DTITLE=Donna Fargo - Shame On Me/Fargo
DYEAR=2006
DGENRE=Country
TTITLE0=Shame On Me
TTITLE1=Ragamuffin Man
TTITLE2=Loving You
TTITLE3=Happy Together
TTITLE4=Do I Love You (Yes In Every Way)
TTITLE5=Gone At Last
TTITLE6=That Was Yesterday
TTITLE7=Dee Dee
TTITLE8=Time
TTITLE9=Kirksville, Missouri
TTITLE10=The Race Is On
TTITLE11=Seeing Is Believing
TTITLE12=Love Will Find A Way
TTITLE13=All The Way
TTITLE14=Loook What You've Done
TTITLE15=We Could Have Been The Closest Of Friends
TTITLE16=It Should Have Been Easy
TTITLE17=You Still Know The Way To My Heart
TTITLE18=I Still Believe In You
TTITLE19=Change Of Heart
TTITLE20=Land Of Cotton
EXTD=YEAR: 2006
EXTT0=
EXTT1=
EXTT2=
EXTT3=
EXTT4=
EXTT5=
EXTT6=
EXTT7=
EXTT8=
EXTT9=
EXTT10=
EXTT11=
EXTT12=
EXTT13=
EXTT14=
EXTT15=
EXTT16=
EXTT17=
EXTT18=
EXTT19=
EXTT20=
PLAYORDER=
